<svg width="10" height="7" viewBox="0 0 10 7" fill="none" xmlns="http://www.w3.org/2000/svg">
<path d="M9.773 0.969714C9.63235 0.829111 9.44162 0.750124 9.24275 0.750124C9.04388 0.750124 8.85315 0.829111 8.7125 0.969714L5 4.68221L1.2875 0.969713C1.14605 0.833095 0.956597 0.757499 0.759949 0.759208C0.563302 0.760916 0.375192 0.839793 0.236136 0.978849C0.0970797 1.11791 0.0182042 1.30601 0.0164952 1.50266C0.0147862 1.69931 0.090382 1.88876 0.227001 2.03021L4.46975 6.27296C4.6104 6.41357 4.80113 6.49255 5 6.49255C5.19887 6.49255 5.3896 6.41357 5.53025 6.27296L9.773 2.03021C9.9136 1.88957 9.99259 1.69884 9.99259 1.49996C9.99259 1.30109 9.9136 1.11036 9.773 0.969714Z" fill="currentColor"/>
</svg>
