<svg width="121" height="120" viewBox="0 0 121 120" fill="none" xmlns="http://www.w3.org/2000/svg">
<g clip-path="url(#clip0_1_1723)">
<path d="M103.625 65.8125L117.688 79.6875L55.25 109.5C55.25 109.5 47 113.25 43.0625 107.25C27.6875 83.25 103.625 65.8125 103.625 65.8125Z" fill="#129746"/>
<path d="M53.75 92.0625C53.75 92.0625 41.75 96.1875 44 104.25C46.25 112.5 55.8125 107.437 55.8125 107.437L115.062 79.875C115.062 79.875 111.688 71.0625 117.688 65.25L53.75 92.0625Z" fill="#D9E3E8"/>
<path d="M63.6875 9.375L120.5 64.6875L53.375 90.9375L10.25 23.8125L63.6875 9.375Z" fill="#1DD063"/>
<path d="M65.375 21.9375L76.25 33.5625L35.5625 48.1875L26 33.375L65.375 21.9375Z" fill="white"/>
<path d="M114.875 71.25L75.3125 87.375L114.312 69.5625L114.875 71.25ZM114.312 76.125L72.125 93.5625L113.562 74.25L114.312 76.125ZM114.688 78.75L60.875 102.188L113.938 77.0625L114.688 78.75Z" fill="#94989B"/>
<path d="M43.0625 107.25C36.5 93.5625 53.375 91.125 53.375 91.125L10.25 23.8125C10.25 23.8125 0.5 23.625 0.5 33.75C0.5 37.875 2.375 41.0625 2.375 41.0625L43.0625 107.25Z" fill="#067632"/>
</g>
<defs>
<clipPath id="clip0_1_1723">
<rect width="120" height="120" fill="white" transform="translate(0.5)"/>
</clipPath>
</defs>
</svg>
