<svg width="32" height="32" viewBox="0 0 32 32" fill="none" xmlns="http://www.w3.org/2000/svg">
<path d="M5.44932 8.63597C6.01452 8.07075 6.68552 7.62239 7.424 7.31649C8.16249 7.01059 8.95399 6.85315 9.75332 6.85315C10.5527 6.85315 11.3442 7.01059 12.0826 7.31649C12.8211 7.62239 13.4921 8.07075 14.0573 8.63597L16 10.5786L17.9427 8.63597C19.0843 7.49448 20.6327 6.85326 22.2471 6.85339C23.8616 6.85351 25.4098 7.49497 26.5513 8.63664C27.6928 9.7783 28.334 11.3267 28.3339 12.9411C28.3338 14.5555 27.6923 16.1038 26.5507 17.2453L24.608 19.1866L24.6253 19.204L16.0173 27.8133L16 27.796L15.9827 27.8133L7.37465 19.204L7.39199 19.1866L5.44932 17.2453C4.8839 16.6801 4.43537 16.009 4.12935 15.2704C3.82334 14.5318 3.66583 13.7401 3.66583 12.9406C3.66583 12.1411 3.82334 11.3495 4.12935 10.6109C4.43537 9.87228 4.8839 9.2012 5.44932 8.63597Z" stroke="currentColor" stroke-linejoin="round"/>
</svg>
