<svg width="121" height="120" viewBox="0 0 121 120" fill="none" xmlns="http://www.w3.org/2000/svg">
<path d="M100.5 79.4267C100.191 79.7373 99.8239 79.9838 99.4195 80.152C99.0151 80.3202 98.5813 80.4068 98.1433 80.4068C97.7053 80.4068 97.2716 80.3202 96.8671 80.152C96.4627 79.9838 96.0955 79.7373 95.7867 79.4267L91.0733 74.7134C90.7627 74.4045 90.5162 74.0373 90.348 73.6329C90.1798 73.2284 90.0932 72.7947 90.0932 72.3567C90.0932 71.9187 90.1798 71.485 90.348 71.0805C90.5162 70.6761 90.7627 70.3089 91.0733 70L100.5 60.5734C101.125 59.9485 101.973 59.5974 102.857 59.5974C103.741 59.5974 104.588 59.9485 105.213 60.5734L109.927 65.2867C110.237 65.5955 110.484 65.9627 110.652 66.3672C110.82 66.7716 110.907 67.2053 110.907 67.6434C110.907 68.0814 110.82 68.5151 110.652 68.9195C110.484 69.324 110.237 69.6912 109.927 70L100.5 79.4267ZM50.5 29.4267C50.1911 29.7373 49.8239 29.9838 49.4195 30.152C49.015 30.3202 48.5813 30.4068 48.1433 30.4068C47.7053 30.4068 47.2716 30.3202 46.8671 30.152C46.4627 29.9838 46.0955 29.7373 45.7867 29.4267L41.0733 24.7134C40.7627 24.4045 40.5162 24.0373 40.348 23.6329C40.1798 23.2284 40.0932 22.7947 40.0932 22.3567C40.0932 21.9187 40.1798 21.485 40.348 21.0805C40.5162 20.6761 40.7627 20.3089 41.0733 20L50.5 10.5734C51.1251 9.94846 51.9728 9.59741 52.8567 9.59741C53.7405 9.59741 54.5882 9.94846 55.2133 10.5734L59.9266 15.2867C60.2373 15.5955 60.4838 15.9627 60.652 16.3672C60.8202 16.7716 60.9068 17.2053 60.9068 17.6434C60.9068 18.0814 60.8202 18.5151 60.652 18.9195C60.4838 19.324 60.2373 19.6912 59.9266 20L50.5 29.4267Z" fill="#66757F"/>
<path d="M7.16668 73.3334C13.8333 73.3334 43.8333 76.6667 43.8333 76.6667C43.8333 76.6667 47.1667 106.667 47.1667 113.333C47.1667 120 40.5 120 37.1667 116.667C33.8333 113.333 23.8333 96.6667 23.8333 96.6667C23.8333 96.6667 7.16668 86.6667 3.83334 83.3334C0.50001 80 0.50001 73.3334 7.16668 73.3334ZM13.8333 20.13C23.8333 20 97.1667 23.3334 97.1667 23.3334C97.1667 23.3334 100.247 96.6667 100.373 106.667C100.5 116.667 91.1633 120.007 87.5 106.67C83.8367 93.3334 70.5 50 70.5 50C70.5 50 23.9833 35.2767 13.8167 32.9934C0.50001 30 3.83001 20.2567 13.8333 20.13Z" fill="#1DD063"/>
<path d="M90.5 9.99998C97.1667 3.33332 113.833 -1.5974e-05 117.167 3.33332C120.5 6.66665 117.167 23.3333 110.5 30C103.833 36.6667 47.1667 90 47.1667 90C47.1667 90 25.5 105 20.5 100C15.5 95 30.5 73.3333 30.5 73.3333C30.5 73.3333 83.8333 16.6667 90.5 9.99998Z" fill="#CCD6DD"/>
<path d="M47.1667 73.3333C47.1667 73.3333 48.8333 75 33.8333 90C18.8333 105 17.1667 103.333 17.1667 103.333C17.1667 103.333 15.5 101.667 30.5 86.6667C45.5 71.6667 47.1667 73.3333 47.1667 73.3333ZM97.1667 13.3333C99.8188 13.3333 102.362 14.3869 104.238 16.2623C106.113 18.1376 107.167 20.6812 107.167 23.3333H109.85C110.23 22.2833 110.5 21.1833 110.5 20C110.5 17.3478 109.446 14.8043 107.571 12.9289C105.696 11.0536 103.152 10 100.5 10C99.3167 10 98.2167 10.27 97.1667 10.65V13.3333Z" fill="#66757F"/>
</svg>
