<svg width="52" height="52" viewBox="0 0 52 52" fill="none" xmlns="http://www.w3.org/2000/svg">
<path d="M26 24.96C24.44 24.96 23.4 26 23.4 27.56C23.4 28.6 24.18 29.38 24.96 29.64L24.18 33.28H27.56L26.78 29.64C27.82 29.38 28.34 28.6 28.34 27.56C28.6 26 27.56 24.96 26 24.96ZM26.26 13.78C24.44 13.78 22.62 15.08 22.62 16.9V20.8H29.64V16.9C29.38 15.08 28.08 13.78 26.26 13.78ZM26 5.19995L7.79999 13V20.8C8.05999 32.24 15.34 42.38 26 46.54C36.66 42.38 43.94 32.24 44.2 20.8V13L26 5.19995ZM36.4 33.8C36.4 35.36 35.36 36.4 33.8 36.4H18.2C16.64 36.4 15.6 35.36 15.6 33.8V23.4C15.6 21.84 16.64 20.8 18.2 20.8H18.98V16.9C19.24 13.26 22.36 10.4 26 10.4C29.64 10.4 32.76 13.26 33.02 16.9V20.8H33.8C35.36 20.8 36.4 21.84 36.4 23.4V33.8Z" fill="white"/>
</svg>
