<svg width="136" height="136" viewBox="0 0 136 136" fill="none" xmlns="http://www.w3.org/2000/svg">
<rect width="73.6667" height="73.6667" transform="translate(34 28.3334)" fill="white"/>
<path d="M88.2868 95.2L68.0002 82.1666L47.7135 95.2L53.8335 71.8533L35.1902 56.6666L59.2735 55.1933L68.0002 32.8666L76.7268 55.1933L100.81 56.6666L82.1668 71.8533M113.334 68C113.334 64.9942 114.528 62.1115 116.653 59.9861C118.778 57.8607 121.661 56.6666 124.667 56.6666V34C124.667 30.9942 123.473 28.1115 121.347 25.9861C119.222 23.8607 116.339 22.6666 113.334 22.6666H22.6668C19.661 22.6666 16.7784 23.8607 14.653 25.9861C12.5275 28.1115 11.3335 30.9942 11.3335 34V56.6666C14.3393 56.6666 17.222 57.8607 19.3474 59.9861C21.4728 62.1115 22.6668 64.9942 22.6668 68C22.6668 71.0057 21.4728 73.8884 19.3474 76.0138C17.222 78.1392 14.3393 79.3333 11.3335 79.3333V102C11.3335 105.006 12.5275 107.888 14.653 110.014C16.7784 112.139 19.661 113.333 22.6668 113.333H113.334C116.339 113.333 119.222 112.139 121.347 110.014C123.473 107.888 124.667 105.006 124.667 102V79.3333C121.661 79.3333 118.778 78.1392 116.653 76.0138C114.528 73.8884 113.334 71.0057 113.334 68Z" fill="#1DD063"/>
</svg>
