<svg width="22" height="23" viewBox="0 0 22 23" fill="none" xmlns="http://www.w3.org/2000/svg">
<path d="M22 9.66667V20.6667C22 21.1529 21.8068 21.6192 21.463 21.963C21.1192 22.3068 20.6529 22.5 20.1667 22.5H1.83333C1.3471 22.5 0.880787 22.3068 0.536971 21.963C0.193154 21.6192 0 21.1529 0 20.6667V9.66667C0 9.18044 0.193154 8.71412 0.536971 8.3703C0.880787 8.02649 1.3471 7.83333 1.83333 7.83333H20.1667C20.6529 7.83333 21.1192 8.02649 21.463 8.3703C21.8068 8.71412 22 9.18044 22 9.66667ZM2.75 6H19.25C19.4931 6 19.7263 5.90342 19.8982 5.73151C20.0701 5.55961 20.1667 5.32645 20.1667 5.08333C20.1667 4.84022 20.0701 4.60706 19.8982 4.43515C19.7263 4.26324 19.4931 4.16667 19.25 4.16667H2.75C2.50688 4.16667 2.27373 4.26324 2.10182 4.43515C1.92991 4.60706 1.83333 4.84022 1.83333 5.08333C1.83333 5.32645 1.92991 5.55961 2.10182 5.73151C2.27373 5.90342 2.50688 6 2.75 6ZM4.58333 2.33333H17.4167C17.6598 2.33333 17.8929 2.23676 18.0648 2.06485C18.2368 1.89294 18.3333 1.65978 18.3333 1.41667C18.3333 1.17355 18.2368 0.940394 18.0648 0.768485C17.8929 0.596577 17.6598 0.5 17.4167 0.5H4.58333C4.34022 0.5 4.10706 0.596577 3.93515 0.768485C3.76324 0.940394 3.66667 1.17355 3.66667 1.41667C3.66667 1.65978 3.76324 1.89294 3.93515 2.06485C4.10706 2.23676 4.34022 2.33333 4.58333 2.33333Z" fill="currentColor"/>
</svg>
