<svg width="53" height="52" viewBox="0 0 53 52" fill="none" xmlns="http://www.w3.org/2000/svg">
<path d="M41.8347 32.6667C41.8347 40.0333 35.868 46 28.5013 46C23.068 46 18.1847 42.6833 16.168 37.6333L11.118 24.95C11.0009 24.6557 10.9702 24.3341 11.0293 24.0229C11.0885 23.7117 11.2351 23.4239 11.452 23.193C11.6688 22.9622 11.947 22.7979 12.2539 22.7194C12.5607 22.641 12.8836 22.6516 13.1847 22.75L14.5013 23.1833C15.4347 23.4833 16.2013 24.2 16.568 25.1167L18.7013 30.4667C18.8347 30.8 19.1347 31 19.468 31H20.168V11.4167C20.168 10.8641 20.3875 10.3342 20.7782 9.94353C21.1689 9.55283 21.6988 9.33333 22.2513 9.33333C22.8039 9.33333 23.3338 9.55283 23.7245 9.94353C24.1152 10.3342 24.3347 10.8641 24.3347 11.4167V25.1667C24.3347 25.6333 24.7013 26 25.168 26C25.6347 26 26.0013 25.6333 26.0013 25.1667V8.08333C26.0013 7.5308 26.2208 7.0009 26.6115 6.61019C27.0022 6.21949 27.5321 6 28.0847 6C28.6372 6 29.1671 6.21949 29.5578 6.61019C29.9485 7.0009 30.168 7.5308 30.168 8.08333V25.1667C30.168 25.6333 30.5347 26 31.0013 26C31.468 26 31.8347 25.6333 31.8347 25.1667V10.5833C31.8347 10.0308 32.0541 9.5009 32.4449 9.11019C32.8356 8.71949 33.3655 8.5 33.918 8.5C34.4705 8.5 35.0004 8.71949 35.3911 9.11019C35.7818 9.5009 36.0013 10.0308 36.0013 10.5833V25.1667C36.0013 25.6333 36.368 26 36.8347 26C37.3013 26 37.668 25.6333 37.668 25.1667V15.5833C37.668 15.0308 37.8875 14.5009 38.2782 14.1102C38.6689 13.7195 39.1988 13.5 39.7513 13.5C40.3039 13.5 40.8338 13.7195 41.2245 14.1102C41.6152 14.5009 41.8347 15.0308 41.8347 15.5833V32.6667Z" fill="white"/>
</svg>
