<svg width="52" height="52" viewBox="0 0 52 52" fill="none" xmlns="http://www.w3.org/2000/svg">
<path d="M17.25 9.75C15.2609 9.75 13.3532 10.5402 11.9467 11.9467C10.5402 13.3532 9.75 15.2609 9.75 17.25V38.25C9.75 40.2391 10.5402 42.1468 11.9467 43.5533C13.3532 44.9598 15.2609 45.75 17.25 45.75H38.25C40.2391 45.75 42.1468 44.9598 43.5533 43.5533C44.9598 42.1468 45.75 40.2391 45.75 38.25V17.25C45.75 15.2609 44.9598 13.3532 43.5533 11.9467C42.1468 10.5402 40.2391 9.75 38.25 9.75H17.25ZM18.75 18.75H36.75C37.1478 18.75 37.5294 18.908 37.8107 19.1893C38.092 19.4706 38.25 19.8522 38.25 20.25C38.25 20.6478 38.092 21.0294 37.8107 21.3107C37.5294 21.592 37.1478 21.75 36.75 21.75H18.75C18.3522 21.75 17.9706 21.592 17.6893 21.3107C17.408 21.0294 17.25 20.6478 17.25 20.25C17.25 19.8522 17.408 19.4706 17.6893 19.1893C17.9706 18.908 18.3522 18.75 18.75 18.75Z" fill="white"/>
</svg>
