<svg width="53" height="52" viewBox="0 0 53 52" fill="none" xmlns="http://www.w3.org/2000/svg">
<path fill-rule="evenodd" clip-rule="evenodd" d="M34.405 29.5695C33.9408 30.0355 33.3448 30.3478 32.6975 30.4644L24.9831 31.853C24.4765 31.9447 23.9552 31.9133 23.4633 31.7616C22.9713 31.6098 22.523 31.3421 22.156 30.9809C21.7891 30.6198 21.5142 30.1758 21.3547 29.6863C21.1951 29.1968 21.1554 28.6761 21.239 28.1681L22.5248 20.3508C22.6339 19.6852 22.9497 19.0707 23.4274 18.5945L34.0707 8H15.4275C14.4045 8 13.4234 8.40638 12.7 9.12975C11.9767 9.85312 11.5703 10.8342 11.5703 11.8572V34.7922L9.06568 42.3086C8.99307 42.527 8.98041 42.7609 9.02903 42.9859C9.07764 43.2108 9.18575 43.4186 9.34206 43.5875C9.49837 43.7564 9.69716 43.8803 9.91767 43.9462C10.1382 44.0121 10.3723 44.0176 10.5957 43.9621L20.7273 41.4292H41.1423C42.1653 41.4292 43.1464 41.0228 43.8697 40.2994C44.5931 39.5761 44.9995 38.595 44.9995 37.572V18.9288L34.405 29.5695ZM40.6768 8.198C40.2047 8.00117 39.6846 7.94962 39.183 8.04994C38.6814 8.15025 38.2212 8.39788 37.8611 8.76116L25.698 20.8728L24.4122 28.6901L32.1267 27.3015L44.2383 15.1384C44.4793 14.8994 44.6706 14.615 44.8012 14.3016C44.9317 13.9882 44.999 13.6521 44.999 13.3127C44.999 12.9732 44.9317 12.6371 44.8012 12.3237C44.6706 12.0104 44.4793 11.726 44.2383 11.4869L41.5126 8.76116C41.2741 8.51923 40.99 8.32696 40.6768 8.19543V8.198Z" fill="white"/>
</svg>
